<svg width="1686" height="437" viewBox="0 0 1686 437" fill="none" xmlns="http://www.w3.org/2000/svg">
<path d="M790.85 159.3L791.37 159.37C795.24 159.89 799.05 160.59 801.99 161.9C804.5 162.92 806.54 164.84 807.72 167.29C809.94 171.72 810.07 176.91 808.08 181.45C806.59 184.66 803.34 187.36 800.36 188.8C797.33 190.22 794.08 191.1 790.75 191.41C784.5 192.01 778.21 190.89 772.56 188.16C769.31 186.57 765.35 183.84 763.36 180.32C761.84 177.69 761.98 174.42 763.73 171.94C766.56 168.03 772.69 167.17 777.29 167.33C781.76 167.61 786.17 168.42 790.45 169.74C791.38 170.07 794.78 171.4 795.41 172.01C795.86 172.41 796.06 173.03 795.91 173.62C795.15 175.95 789.49 177.16 787.85 177.42C783.48 178.09 781.21 176.44 776.23 174.48C774.91 173.92 773.52 173.54 772.1 173.34C769.84 173.13 767.14 173.76 766.68 176.22C766.46 177.49 767.95 178.68 769.09 179.18C771.44 180.23 773.98 180.78 776.56 180.77C784.35 180.9 793.03 179.62 799.38 175.11C800.24 174.49 801.1 173.58 801.11 172.44C801.11 170.13 797.09 168.72 797.09 168.72C792.84 166.94 784.92 166.07 780.85 165.73C776.6 165.36 769.86 164.81 768.26 164.57C766.58 164.39 764.93 163.98 763.35 163.35C761.78 162.63 760.59 161.27 760.07 159.63C759.33 156.71 760.28 153.14 761.9 150.82C766.15 144.72 776.06 142.41 783.48 141.49C790.67 140.6 802.27 140.61 809.32 144.36C810.41 144.94 810.97 145.49 810.74 146.65C810.28 148.72 808.7 150.36 806.65 150.9C804.56 151.57 800.24 151.83 798.34 151.94C789.85 152.42 779.57 152.17 771.44 154.38C770.68 154.52 769.96 154.81 769.32 155.25C768.05 156.62 771.68 157.02 772.45 157.18C772.62 157.22 772.79 157.26 772.97 157.27L790.87 159.39M740.27 121.45C740.27 121.45 741.69 119.38 742.81 117.8C745.43 114.42 748.38 111.3 751.62 108.5C752.5 107.75 753.53 106.9 753.53 106.9C753.53 106.9 751.91 107.06 750.99 107.25C748.81 107.67 745.61 109.8 744.01 111.17C741.38 113.43 738.47 117.1 739.76 120.37C739.94 120.84 740.24 121.45 740.24 121.45M754.97 125.31C759.09 125.02 763.08 123.81 766.67 121.77C770.21 119.78 775.48 115.89 774.94 111.32C774.78 109.93 773.88 108.73 772.58 108.2C770.99 107.49 770.16 107.63 768.13 108.2C766.88 108.52 765.69 109.03 764.59 109.69C759.65 112.79 755.25 116.68 751.56 121.2C750.85 122.16 750.09 123.22 749.52 123.96C749.15 124.41 748.88 124.82 748.91 124.94C749.03 125.4 753.33 125.36 754.96 125.24M744.34 133.03C743.83 133.78 743.37 134.56 742.98 135.37C742.71 135.82 742.36 136.23 741.95 136.56C740.87 137.36 739.95 137.4 738.9 136.48C737.43 135.12 736.58 133.22 736.52 131.22C736.57 130.38 736.56 129.54 736.48 128.71C736.21 127.49 734.99 126.25 734.36 125.09C733.53 123.44 733.03 121.64 732.89 119.8C732.62 115 735.15 110.6 738.44 107.1C741.93 103.47 746.13 100.59 750.78 98.65C755.23 96.77 761.75 95.5 766.64 97.19C768.53 97.87 770.22 99.01 771.56 100.51C771.76 100.8 772 101.05 772.27 101.27C772.67 101.41 773.09 101.51 773.51 101.55C775.22 101.95 776.83 102.71 778.23 103.79C779.93 105.11 781.1 106.99 781.54 109.1C782.47 113.54 779.93 118.4 777.02 121.36C772.06 126.46 767.11 130.04 760.74 132.53C757.91 133.63 753.58 134.65 750.4 134.36C749.42 134.28 748.4 134.01 747.44 133.95C746.6 133.82 745.77 133.61 744.97 133.32C744.73 133.14 744.42 132.97 744.38 133.04M750.04 142.87C750.3 142.92 750.55 142.99 750.79 143.09C753.03 143.94 753.94 146.01 754.49 148.27C755.77 153.54 756.31 165.2 756.52 169.78C756.68 173.2 756.76 176.58 756.9 179.96C757.02 182.79 757.25 186.64 756.66 189.33C756.42 190.41 755.78 191.36 754.87 191.99C753.81 192.7 751.39 192.7 750.07 192.45C746.8 191.74 745.74 189.67 745.27 186.44C744.16 178.72 744.69 163.57 745.35 157.18C745.57 155.06 746.36 148.31 747.47 145.47C747.85 144.52 748.65 142.59 750.04 142.87ZM650.54 155.77C650.54 155.77 645.67 156.12 642.32 156.48C638.07 156.95 630.05 158.33 625.43 159.98C624.01 160.48 621.23 161.65 620.98 163.08C620.73 164.51 621.64 165.71 622.66 166.91C623.25 167.62 626.59 170.81 627.52 171.6C632.96 175.92 638.91 179.56 645.24 182.42C647.25 183.25 650.58 184.44 650.58 184.44C650.58 184.44 650.33 174.96 650.37 165.62C650.37 160.66 650.5 155.81 650.5 155.81M739.71 159.59C739.99 162.13 739.33 166.95 739.23 167.58C738.86 169.37 738.36 171.13 737.73 172.84C736.84 174.89 735.96 176.57 735.03 178.25C732.92 181.7 730.34 184.86 727.38 187.62C719.01 194.86 706.04 198.98 694.91 200.36C686.84 201.31 678.68 201.07 670.69 199.65C667.94 199.15 663.84 198.23 663.84 198.23C663.85 199.16 663.81 200.09 663.72 201.02C663.57 201.83 663.33 202.62 663.01 203.38C662.47 204.54 661.36 205.35 660.09 205.5C658.43 205.91 656.69 205.82 655.09 205.25C652.55 204.18 651.64 201.8 651.2 199.06C650.84 196.86 650.49 193.05 650.49 193.05C650.49 193.05 648.59 192.14 647 191.36C642.25 188.99 637.72 186.22 633.46 183.06C632.33 182.22 627.52 178.19 626.45 177.19C623.47 174.36 620.79 171.53 618.75 167.92C617.16 165.09 616.71 162.6 617.91 159.6C619.57 155.43 625.55 152.29 629.64 150.5C632.65 149.18 641.98 146.13 645.86 145.54C647.69 145.28 650.53 144.77 650.71 144.66C650.77 144.61 650.83 144.56 650.89 144.5C650.97 144.37 651.13 140.25 651.1 138.74C651.06 137.23 652.2 127.51 652.57 125.44C652.76 124.33 653.61 120.04 654.47 118.91C655.04 118.15 656.03 118.2 656.85 118.71C661.3 121.48 662.65 131.07 662.98 135.95C663.18 138.92 663.27 143.4 663.27 143.4C663.27 143.4 668.37 143.25 671.52 143.34C674.73 143.48 677.93 143.84 681.1 144.39C685.16 145.04 693.06 146.77 697.59 149.06C701.32 150.95 704.81 154.14 705.94 157.51C706.99 160.6 706.84 162.74 705.23 165.54C703.43 168.69 700.03 171.03 696.57 171.2C695.54 171.26 691.68 170.75 690.48 169.83C690.05 169.45 690 168.79 690.38 168.35C690.51 168.19 692.31 167.23 693.38 166.67C693.89 166.4 694.37 166.07 694.8 165.69C695.68 164.91 696.48 164.05 696.39 163.04C696.27 161.73 694.89 160.92 693.56 160.41C687.37 157.95 675.02 155.91 669.05 155.56C666.71 155.42 663.39 155.31 663.39 155.31L664.1 188.28C664.1 188.28 666.85 188.8 669.01 189.16C670.25 189.35 675.52 189.82 676.92 189.87C687.57 190.15 699.47 189.2 709.24 184.58C713.53 182.56 717.47 180.05 720.45 176.64C724.55 171.89 726.54 165.68 725.96 159.44C725.36 152.4 720.41 144.06 716.46 138.97C706.01 125.52 688.14 114.49 672.37 108.01C656.29 101.41 640.4 97.6 623.33 96.97C618.93 96.8 609.34 97.03 604.49 98.39C603.78 98.59 603.07 98.82 602.45 98.96C601.91 99.1 601.4 99.32 600.92 99.6C600.84 99.67 600.76 99.75 600.68 99.83C600.68 99.83 600.98 100 601.27 100.12C601.79 100.35 603.95 100.48 605.06 100.69C606.04 100.81 606.92 101.32 607.52 102.11C607.95 102.64 607.95 103.4 607.52 103.94C606.42 105.28 602.29 105.05 600.44 104.77C598.59 104.49 596.19 103.89 595.76 102.24C595.26 100.29 596.18 98.4 597.18 96.63C599.18 93.09 602.04 91.29 606.24 90.14C612.49 88.47 618.89 87.46 625.35 87.14C638.09 86.66 650.13 88.88 662.49 92.63C670.39 95.08 678.1 98.08 685.57 101.61C691.34 104.46 696.95 107.62 702.38 111.07C703.74 111.96 711.67 117.8 712.91 118.82C715.48 120.94 718.85 123.95 721.28 126.36C725.99 131.03 731.86 138.19 734.73 143.87C735.44 145.23 735.94 146.57 736.85 148.12C737.56 149.64 738.17 151.21 738.67 152.82C738.89 153.75 739.2 155.11 739.24 155.16C739.52 156.61 739.7 158.07 739.78 159.54L739.71 159.59ZM899.87 152.3C893.9 153.67 878.22 154.42 878.22 154.42L876.24 160.62C876.24 160.62 884.08 159.95 889.78 160.54C889.78 160.54 891.63 160.33 891.85 162.66C891.88 164.15 891.82 165.65 891.67 167.13C891.67 167.13 891.55 168.55 889.55 168.89C887.43 169.25 872.65 169.82 872.65 169.82L870.36 177.85C870.36 177.85 869.47 179.72 871.46 179.19C873.31 178.69 888.76 175.79 890.77 176.21C892.89 176.75 895.31 179.62 894.63 182.24C893.81 185.49 878.35 195.32 868.99 194.64C868.99 194.64 864.03 194.96 859.89 188.27C856 181.9 861.36 169.91 861.36 169.91C861.36 169.91 858.9 164.3 860.65 162.4C860.65 162.4 861.71 161.44 864.8 161.22L868.59 153.39C868.59 153.39 864.28 153.69 861.72 150.52C859.33 147.52 859.14 146.14 860.96 145.31C862.91 144.34 880.84 141.06 893.18 141.48C893.18 141.48 897.47 141.06 901.19 148.5C901.19 148.5 903 151.51 899.93 152.23L899.87 152.3ZM853.46 182.36C851.88 186.08 847.7 190.05 842.52 187.58C837.34 185.11 829.3 168.37 829.3 168.37C829.3 168.37 826.2 162.14 825.6 162.3C825.6 162.3 824.93 161.08 824.52 167.89C824.11 174.7 824.6 187.88 821.9 189.96C819.34 192.04 816.24 191.21 814.63 188.78C813.17 186.37 812.56 180.67 813.36 170.66C814.29 160.62 816.62 149.95 819.6 146.59C822.58 143.23 824.97 145.68 825.89 146.55C825.89 146.55 829.87 150.16 836.43 160.75L837.59 162.71C837.59 162.71 843.55 172.71 844.17 172.69C844.17 172.69 844.66 173.14 845.09 172.81C845.71 172.64 845.47 169.43 845.47 169.43C845.47 169.43 844.23 158.53 838.79 140.07C838.31 138.63 838.22 137.09 838.52 135.61C839.07 133.43 841.26 134.46 841.26 134.46C841.26 134.46 849.69 138.71 853.78 152.43C857.87 166.15 855.11 178.54 853.5 182.29L853.46 182.36ZM944.2 174.14C940.36 180.84 929.53 194.86 915.13 191.55C910.38 203.08 906.39 214.75 904.1 232.2C904.1 232.2 903.6 235.59 900.78 234.42C897.95 233.44 893.38 228.8 892.46 222.39C891.45 213.95 895.21 199.68 902.89 183.32C900.65 179.68 899.12 174.48 900.43 167.04C900.43 167.04 902.36 153.29 916.17 140.85C916.17 140.85 917.83 139.43 918.79 139.86C919.75 140.28 919.36 144.82 918.52 146.94C917.68 149.06 911.5 159.75 911.5 159.75C911.5 159.75 907.66 166.94 908.74 172.61C915.99 161.47 932.45 139.01 942.67 146.09C946.1 148.55 947.67 153.88 947.67 159.63C947.67 164.68 946.46 170.05 944.2 174.07V174.14ZM941.22 156.5C941.22 156.5 940.65 152.08 936.32 156.95C930.09 163.66 924.77 171.16 920.48 179.26C926.14 178.62 931.62 175.54 933.28 173.98C935.96 171.59 942.23 165.11 941.22 156.5ZM1023.52 155.5H997.13C996.61 146.54 995.5 137.62 993.82 128.8C993.65 127.87 992.84 127.19 991.89 127.19H985.81C985.28 127.19 984.77 127.43 984.44 127.84C984.1 128.25 983.96 128.79 984.06 129.32C985.78 137.96 986.9 146.71 987.42 155.51H962.03C960.86 155.51 959.91 156.46 959.91 157.63V163.11C959.91 164.28 960.86 165.23 962.03 165.23H987.87C987.87 166.58 987.87 167.79 987.87 168.93C987.9 176.2 987.52 183.47 986.73 190.7C986.62 191.8 987.42 192.78 988.52 192.9C988.58 192.91 988.65 192.91 988.71 192.91H994.37C995.47 192.91 996.39 192.08 996.49 190.98C997.25 183.65 997.62 176.29 997.59 168.92C997.59 167.79 997.59 166.57 997.59 165.22H1023.62C1024.79 165.22 1025.74 164.27 1025.74 163.1V157.63C1025.77 156.46 1024.85 155.48 1023.67 155.45C1023.63 155.45 1023.6 155.45 1023.56 155.45L1023.52 155.5Z" fill="#282D71"/>
<path d="M990.3 114.25C952.47 21.29 846.45 -23.4 753.49 14.42C719.75 28.15 690.92 51.7 670.73 82.01C670.36 82.56 670.27 83.25 670.48 83.88C670.69 84.52 671.19 85.01 671.83 85.23L676.55 86.83C676.83 86.92 677.11 86.96 677.4 86.96C678.28 86.96 679.1 86.52 679.59 85.8C711.61 38.6 764.94 10.33 821.98 10.34C891.15 10.36 953.59 51.75 980.55 115.45C980.94 116.37 981.84 116.97 982.84 116.96H988.5C989.59 116.96 990.47 116.08 990.47 115C990.47 114.74 990.42 114.49 990.32 114.25H990.3Z" fill="url(#paint0_radial_1_41)"/>
<path d="M1243.89 137.46H1163.38C1155.17 137.46 1149.66 141.85 1148.88 148.48C1148.54 150.84 1148.31 153.09 1148.31 153.09H1255.58C1255.58 153.09 1255.81 151.52 1255.91 150.17C1256.7 143.54 1254 137.43 1243.88 137.43" fill="black"/>
<path d="M1254.91 158.94C1254.91 158.94 1254.69 161.06 1254.35 163.55C1253.64 168.27 1250.19 171.87 1243.78 171.87H1220.95L1218.37 192.89H1200.16L1204.32 159.05H1254.91V158.94Z" fill="black"/>
<path d="M1097.94 137.46L1096.03 152.97H1144.72L1146.63 137.46H1097.94Z" fill="black"/>
<path d="M1095.35 158.87L1091.19 192.83H1139.77L1141.57 178.1H1111.2L1112 171.69H1142.35L1143.93 158.87H1095.35Z" fill="black"/>
<path d="M1261.21 137.46H1300.9C1307.2 137.46 1313.72 140.38 1312.37 150.62C1312.15 152.42 1312.04 152.98 1312.04 152.98H1259.3L1261.21 137.46Z" fill="black"/>
<path d="M1254.46 192.78H1272.56L1276.73 158.94H1258.51L1254.46 192.78Z" fill="black"/>
<path d="M1288.98 192.78H1307.2L1311.25 158.94H1293.14L1288.98 192.78Z" fill="black"/>
<path d="M1187.56 158.94H1147.64C1146.29 167.82 1150.68 171.76 1156.84 171.76H1181.47L1180.68 178.13H1145.29L1143.49 192.86H1183.63C1184.87 192.75 1193.97 192.52 1197.01 185.07C1198.02 182.6 1198.92 173.93 1199.13 172.14C1200.48 161.34 1193.28 158.87 1187.55 158.87" fill="black"/>
<path d="M1340.55 144.28L1338.86 158.11H1325.37L1323.68 171.83H1337.29L1335.49 185.89H1349.99L1351.68 171.83H1365.4L1366.98 158.11H1353.37L1355.05 144.28H1340.55Z" fill="#F7B119"/>
<path d="M447.97 192.13H464.73V122.76H447.97V192.13ZM418.53 172.31C418.5 174.77 416.51 176.76 414.04 176.79H404.3C401.84 176.76 399.84 174.77 399.81 172.31V144.37H383.05V173.71C383.05 185.69 390.75 192.03 402.06 192.03H418.43C428.86 192.03 435.19 184.53 435.19 173.71V144.37H418.43C418.53 144.37 418.53 171.47 418.53 172.35V172.31ZM512.78 144.33V172.31C512.75 174.77 510.76 176.76 508.3 176.79H498.55C496.09 176.76 494.1 174.77 494.07 172.31V144.37H477.3V173.71C477.3 185.69 485 192.03 496.31 192.03H512.68C523.11 192.03 529.44 184.53 529.44 173.71V144.37L512.78 144.33ZM352.16 144.33H341.44C337.64 144.33 335.78 145.31 335.78 145.31V122.74H319.03V192.04H335.69V164.16C335.72 161.7 337.71 159.71 340.17 159.68H349.92C352.38 159.71 354.37 161.7 354.4 164.16V192.14H371.17V161.9C371.17 149.26 362.69 144.38 352.18 144.38L352.16 144.33Z" fill="#1CE783"/>
<path d="M0.589966 273.22H38.23C99.66 273.22 125.79 309.49 125.79 353.17C125.79 396.85 99.66 434.11 38.23 434.11H0.589966V273.22ZM43.11 394.52C73.34 394.52 86.4 375.8 86.4 353.17C86.4 330.75 73.34 312.61 43.11 312.61H39.79V394.51H43.11V394.52Z" fill="black"/>
<path d="M156.69 273.81H196.09V434.11H156.69V273.81Z" fill="black"/>
<path d="M224.01 381.85H262.43C262.82 392.38 269.06 401.35 281.74 401.35C292.66 401.35 299.48 394.71 299.48 385.55C299.48 374.83 290.51 370.53 273.35 364.49C245.46 354.74 229.67 342.45 229.67 316.12C229.67 288.62 252.09 270.29 281.15 270.29C312.35 270.29 332.83 290.57 333.03 321.18L297.14 321C296.75 311.63 291.68 304.23 281.15 304.23C272.38 304.23 266.72 309.69 266.72 316.71C266.72 326.65 276.67 329.97 288.56 334.07C315.86 343.23 339.07 351.43 339.07 386.14C339.07 417.93 314.31 436.65 281.93 436.65C247.42 436.65 224.21 414.42 224.01 381.85Z" fill="black"/>
<path d="M368 273.41H407.59L454.39 362.35V273.41H493.79V434.11H454.78L407.4 344.41V434.11H368V273.41Z" fill="black"/>
<path d="M531.32 273.81H622.97V310.67H570.51V338.36H618.48V367.61H570.51V396.86H622.97V434.11H531.32V273.81Z" fill="black"/>
<path d="M693.25 389.06L639.82 273.41H682.14L712.95 344.79L743.37 273.41H785.3L732.45 389.06V434.11H693.25V389.06Z" fill="black"/>
<path d="M871.61 273.41H916.27C954.49 273.41 973.41 287.65 973.41 317.3C973.41 331.13 967.36 341.47 958.59 347.14C972.63 352.98 980.82 366.43 980.82 382.63C980.82 414.42 960.54 434.11 916.86 434.11H871.61V273.41ZM917.05 336.59C929.34 336.59 936.75 332.7 936.75 321.97C936.75 310.27 929.53 306.57 917.05 306.57H908.47V336.6H917.05V336.59ZM915.68 398.43C932.45 398.43 941.03 394.52 941.03 381.85C941.03 369.37 932.45 364.68 917.04 364.68H908.46V398.42H915.68V398.43Z" fill="black"/>
<path d="M1006.83 372.88V273.41H1046.23V374.24C1046.23 387.69 1050.91 398.61 1066.12 398.61C1081.33 398.61 1086.02 387.69 1086.02 374.24V273.41H1125.41V372.88C1125.41 411.69 1102.79 436.65 1066.13 436.65C1029.46 436.65 1006.83 411.48 1006.83 372.88Z" fill="black"/>
<path d="M1160.98 273.41H1200.57L1247.37 362.35V273.41H1286.77V434.11H1247.76L1200.38 344.41V434.11H1160.98V273.41Z" fill="black"/>
<path d="M1324.29 273.22H1361.93C1423.36 273.22 1449.49 309.49 1449.49 353.17C1449.49 396.85 1423.36 434.11 1361.93 434.11H1324.29V273.22ZM1366.81 394.52C1397.04 394.52 1410.1 375.8 1410.1 353.17C1410.1 330.75 1397.04 312.61 1366.81 312.61H1363.49V394.51H1366.81V394.52Z" fill="black"/>
<path d="M1480.39 273.22H1519.59V396.86H1566.78V434.11H1480.39V273.22Z" fill="black"/>
<path d="M1593.75 273.81H1685.4V310.67H1632.94V338.36H1680.91V367.61H1632.94V396.86H1685.4V434.11H1593.75V273.81Z" fill="black"/>
<defs>
<radialGradient id="paint0_radial_1_41" cx="0" cy="0" r="1" gradientUnits="userSpaceOnUse" gradientTransform="translate(984.745 116.743) scale(305.309)">
<stop stop-color="#282D71"/>
<stop offset="0.03" stop-color="#2C377E"/>
<stop offset="0.09" stop-color="#334692"/>
<stop offset="0.16" stop-color="#38509F"/>
<stop offset="0.22" stop-color="#3953A3"/>
<stop offset="1" stop-color="#6FCBDC" stop-opacity="0"/>
</radialGradient>
</defs>
</svg>
